<?xml version="1.0" encoding="UTF-8"?>
<svg width="14px" height="16px" viewBox="0 0 14 16" version="1.1" xmlns="http://www.w3.org/2000/svg" xmlns:xlink="http://www.w3.org/1999/xlink">
    <title>C9D6F43B-9268-461C-8D98-66868AE1E0C0</title>
    <defs>
        <rect id="path-1" x="0" y="0" width="1439" height="800"></rect>
        <rect id="path-3" x="0" y="0" width="406" height="160" rx="2"></rect>
        <filter x="-7.9%" y="-16.2%" width="116.7%" height="142.5%" filterUnits="objectBoundingBox" id="filter-4">
            <feOffset dx="2" dy="8" in="SourceAlpha" result="shadowOffsetOuter1"></feOffset>
            <feGaussianBlur stdDeviation="10" in="shadowOffsetOuter1" result="shadowBlurOuter1"></feGaussianBlur>
            <feComposite in="shadowBlurOuter1" in2="SourceAlpha" operator="out" result="shadowBlurOuter1"></feComposite>
            <feColorMatrix values="0 0 0 0 0   0 0 0 0 0   0 0 0 0 0  0 0 0 0.1 0" type="matrix" in="shadowBlurOuter1"></feColorMatrix>
        </filter>
        <path d="M6.75000004,0 C10.4779221,0 13.5,2.98476829 13.5,6.6666666 C13.5,8.91440302 12.283379,11.1173383 10.2775181,13.2084964 C9.58972647,13.9255357 8.85482084,14.5787852 8.11969437,15.1569368 C7.86199408,15.3596091 7.62221728,15.5387396 7.40624132,15.6927966 C7.27462626,15.7866784 7.17872317,15.8522801 7.12442267,15.8880335 C6.89769057,16.0373222 6.60230951,16.0373222 6.3755774,15.8880335 C6.32127691,15.8522801 6.22537381,15.7866784 6.09375875,15.6927966 C5.8777828,15.5387396 5.638006,15.3596091 5.3803057,15.1569368 C4.64517924,14.5787852 3.9102736,13.9255357 3.22248196,13.2084964 C1.21662107,11.1173383 0,8.91440302 0,6.6666666 C0,2.98476829 3.02207799,0 6.75000004,0 Z M6.75,4 C5.23121694,4 4,5.23121694 4,6.75 C4,8.26878306 5.23121694,9.5 6.75,9.5 C8.26878306,9.5 9.5,8.26878306 9.5,6.75 C9.5,5.23121694 8.26878306,4 6.75,4 Z" id="path-5"></path>
    </defs>
    <g id="LOCATOR" stroke="none" stroke-width="1" fill="none" fill-rule="evenodd">
        <g id="Locator-02.5" transform="translate(-164.000000, -592.000000)">
            <rect fill="#FFFFFF" fill-opacity="0"  x="0" y="0" width="1440" height="1510"></rect>
            <g id="Screen_Shot_2018_08_05_at_10.37.13_AM.0" transform="translate(0.000000, 208.000000)">
                <mask id="mask-2" fill="white">
                    <use xlink:href="#path-1"></use>
                </mask>
                <use id="Mask" fill="#D8D8D8" fill-opacity="0"  xlink:href="#path-1"></use>
            </g>
            <g id="search" transform="translate(108.000000, 268.000000)">
                <rect id="Rectangle" fill="#FFFFFF" fill-opacity="0"  x="0" y="0" width="486" height="680"></rect>
                <g id="Group" transform="translate(40.000000, 88.000000)">
                   
                    <g id="UI/Form-field/Titled/Standard-Copy-2" transform="translate(0.000000, 104.000000)">
                        <g id="Group-2" transform="translate(0.000000, 79.000000)">
                            <g id="Rectangle">
                                <use fill="black" fill-opacity="1" filter="url(#filter-4)" xlink:href="#path-3"></use>
                                <rect stroke="#6CB33E" stroke-width="1" stroke-linejoin="square" fill="#FFFFFF" fill-opacity="0"  fill-rule="evenodd" x="0.5" y="0.5" width="405" height="159" rx="2"></rect>
                            </g>
                            <g id="UI-/-Icons-/-Pin-/-blk-Copy" transform="translate(16.000000, 53.000000)">
                                <mask id="mask-6" fill="white">
                                    <use xlink:href="#path-5"></use>
                                </mask>
                                <use id="Combined-Shape" fill="#B41F75" xlink:href="#path-5"></use>
                            </g>
                        </g>
                    </g>
                </g>
            </g>
        </g>
    </g>
</svg>