<svg viewBox="0 0 1024 1024" xmlns="http://www.w3.org/2000/svg"><path d="M370 837q108 0 192-40 83-41 140-105.5T789 547q29-80 29-158v-10q0-5-1-10 23-17 43-37.5t36-44.5q-21 10-44 16t-46 9q24-15 42-37.5t27-49.5q-23 13-48 23t-52 15q-22-23-51.5-36.5T660 213q-66 0-112 46.5T502 371q0 9 1 18t3 18q-49-3-95-15-46-13-87-34.5T247 307q-36-29-66-65-10 18-15.5 38t-5.5 41q0 41 19.5 75.5T230 453q-19-1-37-6t-34-14v2q0 57 36 100t90 54q-10 3-20.5 4.5T244 595q-8 0-15.5-1t-14.5-2q15 47 55.5 77.5T361 701q-40 32-90 50t-105 18q-10 0-19.5-.5T128 767q52 33 113.5 51.5T370 837z" fill="white"/></svg>